<mxfile host="app.diagrams.net" agent="Mozilla/5.0 (Windows NT 10.0; Win64; x64) AppleWebKit/537.36 (KHTML, like Gecko) Chrome/134.0.0.0 Safari/537.36 Edg/134.0.0.0" version="26.1.3">
  <diagram name="Page-1" id="0LplpwugG9WD71_XOVl7">
    <mxGraphModel dx="1831" dy="1996" grid="1" gridSize="10" guides="1" tooltips="1" connect="1" arrows="1" fold="1" page="1" pageScale="1" pageWidth="850" pageHeight="1100" math="0" shadow="0">
      <root>
        <mxCell id="0" />
        <mxCell id="1" parent="0" />
        <mxCell id="DMNaxNaqKt3KZPqngeq9-5" value="&amp;lt;&amp;lt;enum&amp;gt;&amp;gt;PaymentStatus" style="swimlane;fontStyle=0;childLayout=stackLayout;horizontal=1;startSize=26;fillColor=none;horizontalStack=0;resizeParent=1;resizeParentMax=0;resizeLast=0;collapsible=1;marginBottom=0;whiteSpace=wrap;html=1;" vertex="1" parent="1">
          <mxGeometry x="670" y="-140" width="160" height="104" as="geometry" />
        </mxCell>
        <mxCell id="DMNaxNaqKt3KZPqngeq9-6" value="Payed" style="text;strokeColor=none;fillColor=none;align=left;verticalAlign=top;spacingLeft=4;spacingRight=4;overflow=hidden;rotatable=0;points=[[0,0.5],[1,0.5]];portConstraint=eastwest;whiteSpace=wrap;html=1;" vertex="1" parent="DMNaxNaqKt3KZPqngeq9-5">
          <mxGeometry y="26" width="160" height="26" as="geometry" />
        </mxCell>
        <mxCell id="DMNaxNaqKt3KZPqngeq9-7" value="Not-Payed" style="text;strokeColor=none;fillColor=none;align=left;verticalAlign=top;spacingLeft=4;spacingRight=4;overflow=hidden;rotatable=0;points=[[0,0.5],[1,0.5]];portConstraint=eastwest;whiteSpace=wrap;html=1;" vertex="1" parent="DMNaxNaqKt3KZPqngeq9-5">
          <mxGeometry y="52" width="160" height="26" as="geometry" />
        </mxCell>
        <mxCell id="DMNaxNaqKt3KZPqngeq9-8" value="In-Process" style="text;strokeColor=none;fillColor=none;align=left;verticalAlign=top;spacingLeft=4;spacingRight=4;overflow=hidden;rotatable=0;points=[[0,0.5],[1,0.5]];portConstraint=eastwest;whiteSpace=wrap;html=1;" vertex="1" parent="DMNaxNaqKt3KZPqngeq9-5">
          <mxGeometry y="78" width="160" height="26" as="geometry" />
        </mxCell>
        <mxCell id="DMNaxNaqKt3KZPqngeq9-9" value="&amp;lt;&amp;lt;enum&amp;gt;&amp;gt;PassengerTpye" style="swimlane;fontStyle=0;childLayout=stackLayout;horizontal=1;startSize=26;fillColor=none;horizontalStack=0;resizeParent=1;resizeParentMax=0;resizeLast=0;collapsible=1;marginBottom=0;whiteSpace=wrap;html=1;" vertex="1" parent="1">
          <mxGeometry x="275" y="480" width="170" height="104" as="geometry" />
        </mxCell>
        <mxCell id="DMNaxNaqKt3KZPqngeq9-10" value="Chld" style="text;strokeColor=none;fillColor=none;align=left;verticalAlign=top;spacingLeft=4;spacingRight=4;overflow=hidden;rotatable=0;points=[[0,0.5],[1,0.5]];portConstraint=eastwest;whiteSpace=wrap;html=1;" vertex="1" parent="DMNaxNaqKt3KZPqngeq9-9">
          <mxGeometry y="26" width="170" height="26" as="geometry" />
        </mxCell>
        <mxCell id="DMNaxNaqKt3KZPqngeq9-11" value="middleage" style="text;strokeColor=none;fillColor=none;align=left;verticalAlign=top;spacingLeft=4;spacingRight=4;overflow=hidden;rotatable=0;points=[[0,0.5],[1,0.5]];portConstraint=eastwest;whiteSpace=wrap;html=1;" vertex="1" parent="DMNaxNaqKt3KZPqngeq9-9">
          <mxGeometry y="52" width="170" height="26" as="geometry" />
        </mxCell>
        <mxCell id="DMNaxNaqKt3KZPqngeq9-12" value="oldCitizen" style="text;strokeColor=none;fillColor=none;align=left;verticalAlign=top;spacingLeft=4;spacingRight=4;overflow=hidden;rotatable=0;points=[[0,0.5],[1,0.5]];portConstraint=eastwest;whiteSpace=wrap;html=1;" vertex="1" parent="DMNaxNaqKt3KZPqngeq9-9">
          <mxGeometry y="78" width="170" height="26" as="geometry" />
        </mxCell>
        <mxCell id="DMNaxNaqKt3KZPqngeq9-17" value="upi" style="swimlane;fontStyle=1;align=center;verticalAlign=top;childLayout=stackLayout;horizontal=1;startSize=26;horizontalStack=0;resizeParent=1;resizeParentMax=0;resizeLast=0;collapsible=1;marginBottom=0;whiteSpace=wrap;html=1;" vertex="1" parent="1">
          <mxGeometry x="540" width="160" height="86" as="geometry" />
        </mxCell>
        <mxCell id="DMNaxNaqKt3KZPqngeq9-18" value="+ field: type" style="text;strokeColor=none;fillColor=none;align=left;verticalAlign=top;spacingLeft=4;spacingRight=4;overflow=hidden;rotatable=0;points=[[0,0.5],[1,0.5]];portConstraint=eastwest;whiteSpace=wrap;html=1;" vertex="1" parent="DMNaxNaqKt3KZPqngeq9-17">
          <mxGeometry y="26" width="160" height="26" as="geometry" />
        </mxCell>
        <mxCell id="DMNaxNaqKt3KZPqngeq9-19" value="" style="line;strokeWidth=1;fillColor=none;align=left;verticalAlign=middle;spacingTop=-1;spacingLeft=3;spacingRight=3;rotatable=0;labelPosition=right;points=[];portConstraint=eastwest;strokeColor=inherit;" vertex="1" parent="DMNaxNaqKt3KZPqngeq9-17">
          <mxGeometry y="52" width="160" height="8" as="geometry" />
        </mxCell>
        <mxCell id="DMNaxNaqKt3KZPqngeq9-20" value="+ method(type): type" style="text;strokeColor=none;fillColor=none;align=left;verticalAlign=top;spacingLeft=4;spacingRight=4;overflow=hidden;rotatable=0;points=[[0,0.5],[1,0.5]];portConstraint=eastwest;whiteSpace=wrap;html=1;" vertex="1" parent="DMNaxNaqKt3KZPqngeq9-17">
          <mxGeometry y="60" width="160" height="26" as="geometry" />
        </mxCell>
        <mxCell id="DMNaxNaqKt3KZPqngeq9-21" value="Railway Management System" style="swimlane;fontStyle=1;align=center;verticalAlign=top;childLayout=stackLayout;horizontal=1;startSize=26;horizontalStack=0;resizeParent=1;resizeParentMax=0;resizeLast=0;collapsible=1;marginBottom=0;whiteSpace=wrap;html=1;" vertex="1" parent="1">
          <mxGeometry x="890" y="127" width="230" height="140" as="geometry" />
        </mxCell>
        <mxCell id="DMNaxNaqKt3KZPqngeq9-22" value="users:{;list}" style="text;strokeColor=none;fillColor=none;align=left;verticalAlign=top;spacingLeft=4;spacingRight=4;overflow=hidden;rotatable=0;points=[[0,0.5],[1,0.5]];portConstraint=eastwest;whiteSpace=wrap;html=1;" vertex="1" parent="DMNaxNaqKt3KZPqngeq9-21">
          <mxGeometry y="26" width="230" height="54" as="geometry" />
        </mxCell>
        <mxCell id="DMNaxNaqKt3KZPqngeq9-23" value="" style="line;strokeWidth=1;fillColor=none;align=left;verticalAlign=middle;spacingTop=-1;spacingLeft=3;spacingRight=3;rotatable=0;labelPosition=right;points=[];portConstraint=eastwest;strokeColor=inherit;" vertex="1" parent="DMNaxNaqKt3KZPqngeq9-21">
          <mxGeometry y="80" width="230" height="8" as="geometry" />
        </mxCell>
        <mxCell id="DMNaxNaqKt3KZPqngeq9-24" value="addTrains():&lt;div&gt;removeTrains():&lt;/div&gt;&lt;div&gt;upgateTrainDetails():&lt;/div&gt;" style="text;strokeColor=none;fillColor=none;align=left;verticalAlign=top;spacingLeft=4;spacingRight=4;overflow=hidden;rotatable=0;points=[[0,0.5],[1,0.5]];portConstraint=eastwest;whiteSpace=wrap;html=1;" vertex="1" parent="DMNaxNaqKt3KZPqngeq9-21">
          <mxGeometry y="88" width="230" height="52" as="geometry" />
        </mxCell>
        <mxCell id="DMNaxNaqKt3KZPqngeq9-25" value="Complaint" style="swimlane;fontStyle=1;align=center;verticalAlign=top;childLayout=stackLayout;horizontal=1;startSize=26;horizontalStack=0;resizeParent=1;resizeParentMax=0;resizeLast=0;collapsible=1;marginBottom=0;whiteSpace=wrap;html=1;" vertex="1" parent="1">
          <mxGeometry x="1195" y="197" width="180" height="170" as="geometry" />
        </mxCell>
        <mxCell id="DMNaxNaqKt3KZPqngeq9-26" value="complaintID:int&lt;div&gt;passenger:Passenger&lt;/div&gt;&lt;div&gt;description:string&lt;/div&gt;&lt;div&gt;status:ComplaintStatus&lt;/div&gt;&lt;div&gt;submissionDate:DateTime&lt;/div&gt;" style="text;strokeColor=none;fillColor=none;align=left;verticalAlign=top;spacingLeft=4;spacingRight=4;overflow=hidden;rotatable=0;points=[[0,0.5],[1,0.5]];portConstraint=eastwest;whiteSpace=wrap;html=1;" vertex="1" parent="DMNaxNaqKt3KZPqngeq9-25">
          <mxGeometry y="26" width="180" height="90" as="geometry" />
        </mxCell>
        <mxCell id="DMNaxNaqKt3KZPqngeq9-27" value="" style="line;strokeWidth=1;fillColor=none;align=left;verticalAlign=middle;spacingTop=-1;spacingLeft=3;spacingRight=3;rotatable=0;labelPosition=right;points=[];portConstraint=eastwest;strokeColor=inherit;" vertex="1" parent="DMNaxNaqKt3KZPqngeq9-25">
          <mxGeometry y="116" width="180" height="8" as="geometry" />
        </mxCell>
        <mxCell id="DMNaxNaqKt3KZPqngeq9-28" value="void submitComplain():&lt;div&gt;void updateStatus():&lt;/div&gt;" style="text;strokeColor=none;fillColor=none;align=left;verticalAlign=top;spacingLeft=4;spacingRight=4;overflow=hidden;rotatable=0;points=[[0,0.5],[1,0.5]];portConstraint=eastwest;whiteSpace=wrap;html=1;" vertex="1" parent="DMNaxNaqKt3KZPqngeq9-25">
          <mxGeometry y="124" width="180" height="46" as="geometry" />
        </mxCell>
        <mxCell id="DMNaxNaqKt3KZPqngeq9-29" value="Train Management System" style="swimlane;fontStyle=1;align=center;verticalAlign=top;childLayout=stackLayout;horizontal=1;startSize=26;horizontalStack=0;resizeParent=1;resizeParentMax=0;resizeLast=0;collapsible=1;marginBottom=0;whiteSpace=wrap;html=1;" vertex="1" parent="1">
          <mxGeometry x="905" y="324" width="200" height="112" as="geometry" />
        </mxCell>
        <mxCell id="DMNaxNaqKt3KZPqngeq9-30" value="train:{list}&lt;div&gt;&lt;br&gt;&lt;/div&gt;" style="text;strokeColor=none;fillColor=none;align=left;verticalAlign=top;spacingLeft=4;spacingRight=4;overflow=hidden;rotatable=0;points=[[0,0.5],[1,0.5]];portConstraint=eastwest;whiteSpace=wrap;html=1;" vertex="1" parent="DMNaxNaqKt3KZPqngeq9-29">
          <mxGeometry y="26" width="200" height="52" as="geometry" />
        </mxCell>
        <mxCell id="DMNaxNaqKt3KZPqngeq9-31" value="" style="line;strokeWidth=1;fillColor=none;align=left;verticalAlign=middle;spacingTop=-1;spacingLeft=3;spacingRight=3;rotatable=0;labelPosition=right;points=[];portConstraint=eastwest;strokeColor=inherit;" vertex="1" parent="DMNaxNaqKt3KZPqngeq9-29">
          <mxGeometry y="78" width="200" height="8" as="geometry" />
        </mxCell>
        <mxCell id="DMNaxNaqKt3KZPqngeq9-32" value="+ method(type): type" style="text;strokeColor=none;fillColor=none;align=left;verticalAlign=top;spacingLeft=4;spacingRight=4;overflow=hidden;rotatable=0;points=[[0,0.5],[1,0.5]];portConstraint=eastwest;whiteSpace=wrap;html=1;" vertex="1" parent="DMNaxNaqKt3KZPqngeq9-29">
          <mxGeometry y="86" width="200" height="26" as="geometry" />
        </mxCell>
        <mxCell id="DMNaxNaqKt3KZPqngeq9-33" value="Train" style="swimlane;fontStyle=1;align=center;verticalAlign=top;childLayout=stackLayout;horizontal=1;startSize=26;horizontalStack=0;resizeParent=1;resizeParentMax=0;resizeLast=0;collapsible=1;marginBottom=0;whiteSpace=wrap;html=1;" vertex="1" parent="1">
          <mxGeometry x="925" y="480" width="160" height="110" as="geometry" />
        </mxCell>
        <mxCell id="DMNaxNaqKt3KZPqngeq9-34" value="&lt;div&gt;trainID:int&lt;/div&gt;seats:{list}" style="text;strokeColor=none;fillColor=none;align=left;verticalAlign=top;spacingLeft=4;spacingRight=4;overflow=hidden;rotatable=0;points=[[0,0.5],[1,0.5]];portConstraint=eastwest;whiteSpace=wrap;html=1;" vertex="1" parent="DMNaxNaqKt3KZPqngeq9-33">
          <mxGeometry y="26" width="160" height="32" as="geometry" />
        </mxCell>
        <mxCell id="DMNaxNaqKt3KZPqngeq9-35" value="" style="line;strokeWidth=1;fillColor=none;align=left;verticalAlign=middle;spacingTop=-1;spacingLeft=3;spacingRight=3;rotatable=0;labelPosition=right;points=[];portConstraint=eastwest;strokeColor=inherit;" vertex="1" parent="DMNaxNaqKt3KZPqngeq9-33">
          <mxGeometry y="58" width="160" height="8" as="geometry" />
        </mxCell>
        <mxCell id="DMNaxNaqKt3KZPqngeq9-36" value="void updateAvailability():&lt;div&gt;void getSchedule():&lt;/div&gt;" style="text;strokeColor=none;fillColor=none;align=left;verticalAlign=top;spacingLeft=4;spacingRight=4;overflow=hidden;rotatable=0;points=[[0,0.5],[1,0.5]];portConstraint=eastwest;whiteSpace=wrap;html=1;" vertex="1" parent="DMNaxNaqKt3KZPqngeq9-33">
          <mxGeometry y="66" width="160" height="44" as="geometry" />
        </mxCell>
        <mxCell id="DMNaxNaqKt3KZPqngeq9-37" value="Seat" style="swimlane;fontStyle=1;align=center;verticalAlign=top;childLayout=stackLayout;horizontal=1;startSize=26;horizontalStack=0;resizeParent=1;resizeParentMax=0;resizeLast=0;collapsible=1;marginBottom=0;whiteSpace=wrap;html=1;" vertex="1" parent="1">
          <mxGeometry x="925" y="650" width="160" height="130" as="geometry" />
        </mxCell>
        <mxCell id="DMNaxNaqKt3KZPqngeq9-38" value="seatID:string&lt;div&gt;seatNumber:int&lt;/div&gt;&lt;div&gt;train:Train&lt;/div&gt;&lt;div&gt;seatclass:String&lt;/div&gt;" style="text;strokeColor=none;fillColor=none;align=left;verticalAlign=top;spacingLeft=4;spacingRight=4;overflow=hidden;rotatable=0;points=[[0,0.5],[1,0.5]];portConstraint=eastwest;whiteSpace=wrap;html=1;" vertex="1" parent="DMNaxNaqKt3KZPqngeq9-37">
          <mxGeometry y="26" width="160" height="64" as="geometry" />
        </mxCell>
        <mxCell id="DMNaxNaqKt3KZPqngeq9-39" value="" style="line;strokeWidth=1;fillColor=none;align=left;verticalAlign=middle;spacingTop=-1;spacingLeft=3;spacingRight=3;rotatable=0;labelPosition=right;points=[];portConstraint=eastwest;strokeColor=inherit;" vertex="1" parent="DMNaxNaqKt3KZPqngeq9-37">
          <mxGeometry y="90" width="160" height="8" as="geometry" />
        </mxCell>
        <mxCell id="DMNaxNaqKt3KZPqngeq9-40" value="void reserveSeat():&lt;div&gt;void releaseSeat():&lt;/div&gt;" style="text;strokeColor=none;fillColor=none;align=left;verticalAlign=top;spacingLeft=4;spacingRight=4;overflow=hidden;rotatable=0;points=[[0,0.5],[1,0.5]];portConstraint=eastwest;whiteSpace=wrap;html=1;" vertex="1" parent="DMNaxNaqKt3KZPqngeq9-37">
          <mxGeometry y="98" width="160" height="32" as="geometry" />
        </mxCell>
        <mxCell id="DMNaxNaqKt3KZPqngeq9-41" value="Cancel Ticket" style="swimlane;fontStyle=1;align=center;verticalAlign=top;childLayout=stackLayout;horizontal=1;startSize=26;horizontalStack=0;resizeParent=1;resizeParentMax=0;resizeLast=0;collapsible=1;marginBottom=0;whiteSpace=wrap;html=1;" vertex="1" parent="1">
          <mxGeometry x="470" y="310" width="180" height="110" as="geometry" />
        </mxCell>
        <mxCell id="DMNaxNaqKt3KZPqngeq9-42" value="paymentStatus:PaymentStatus" style="text;strokeColor=none;fillColor=none;align=left;verticalAlign=top;spacingLeft=4;spacingRight=4;overflow=hidden;rotatable=0;points=[[0,0.5],[1,0.5]];portConstraint=eastwest;whiteSpace=wrap;html=1;" vertex="1" parent="DMNaxNaqKt3KZPqngeq9-41">
          <mxGeometry y="26" width="180" height="34" as="geometry" />
        </mxCell>
        <mxCell id="DMNaxNaqKt3KZPqngeq9-43" value="" style="line;strokeWidth=1;fillColor=none;align=left;verticalAlign=middle;spacingTop=-1;spacingLeft=3;spacingRight=3;rotatable=0;labelPosition=right;points=[];portConstraint=eastwest;strokeColor=inherit;" vertex="1" parent="DMNaxNaqKt3KZPqngeq9-41">
          <mxGeometry y="60" width="180" height="8" as="geometry" />
        </mxCell>
        <mxCell id="DMNaxNaqKt3KZPqngeq9-44" value="void cancelBooking():" style="text;strokeColor=none;fillColor=none;align=left;verticalAlign=top;spacingLeft=4;spacingRight=4;overflow=hidden;rotatable=0;points=[[0,0.5],[1,0.5]];portConstraint=eastwest;whiteSpace=wrap;html=1;" vertex="1" parent="DMNaxNaqKt3KZPqngeq9-41">
          <mxGeometry y="68" width="180" height="42" as="geometry" />
        </mxCell>
        <mxCell id="DMNaxNaqKt3KZPqngeq9-45" value="Passenger" style="swimlane;fontStyle=1;align=center;verticalAlign=top;childLayout=stackLayout;horizontal=1;startSize=26;horizontalStack=0;resizeParent=1;resizeParentMax=0;resizeLast=0;collapsible=1;marginBottom=0;whiteSpace=wrap;html=1;" vertex="1" parent="1">
          <mxGeometry x="435" y="660" width="160" height="86" as="geometry" />
        </mxCell>
        <mxCell id="DMNaxNaqKt3KZPqngeq9-46" value="+ field: type" style="text;strokeColor=none;fillColor=none;align=left;verticalAlign=top;spacingLeft=4;spacingRight=4;overflow=hidden;rotatable=0;points=[[0,0.5],[1,0.5]];portConstraint=eastwest;whiteSpace=wrap;html=1;" vertex="1" parent="DMNaxNaqKt3KZPqngeq9-45">
          <mxGeometry y="26" width="160" height="26" as="geometry" />
        </mxCell>
        <mxCell id="DMNaxNaqKt3KZPqngeq9-47" value="" style="line;strokeWidth=1;fillColor=none;align=left;verticalAlign=middle;spacingTop=-1;spacingLeft=3;spacingRight=3;rotatable=0;labelPosition=right;points=[];portConstraint=eastwest;strokeColor=inherit;" vertex="1" parent="DMNaxNaqKt3KZPqngeq9-45">
          <mxGeometry y="52" width="160" height="8" as="geometry" />
        </mxCell>
        <mxCell id="DMNaxNaqKt3KZPqngeq9-48" value="+ method(type): type" style="text;strokeColor=none;fillColor=none;align=left;verticalAlign=top;spacingLeft=4;spacingRight=4;overflow=hidden;rotatable=0;points=[[0,0.5],[1,0.5]];portConstraint=eastwest;whiteSpace=wrap;html=1;" vertex="1" parent="DMNaxNaqKt3KZPqngeq9-45">
          <mxGeometry y="60" width="160" height="26" as="geometry" />
        </mxCell>
        <mxCell id="DMNaxNaqKt3KZPqngeq9-49" value="&amp;lt;&amp;lt;abstract&amp;gt;&amp;gt;User" style="swimlane;fontStyle=1;align=center;verticalAlign=top;childLayout=stackLayout;horizontal=1;startSize=26;horizontalStack=0;resizeParent=1;resizeParentMax=0;resizeLast=0;collapsible=1;marginBottom=0;whiteSpace=wrap;html=1;" vertex="1" parent="1">
          <mxGeometry x="540" y="450" width="160" height="124" as="geometry" />
        </mxCell>
        <mxCell id="DMNaxNaqKt3KZPqngeq9-50" value="userID:int&lt;div&gt;name:string&lt;/div&gt;&lt;div&gt;contactDetails:string&lt;/div&gt;" style="text;strokeColor=none;fillColor=none;align=left;verticalAlign=top;spacingLeft=4;spacingRight=4;overflow=hidden;rotatable=0;points=[[0,0.5],[1,0.5]];portConstraint=eastwest;whiteSpace=wrap;html=1;" vertex="1" parent="DMNaxNaqKt3KZPqngeq9-49">
          <mxGeometry y="26" width="160" height="50" as="geometry" />
        </mxCell>
        <mxCell id="DMNaxNaqKt3KZPqngeq9-51" value="" style="line;strokeWidth=1;fillColor=none;align=left;verticalAlign=middle;spacingTop=-1;spacingLeft=3;spacingRight=3;rotatable=0;labelPosition=right;points=[];portConstraint=eastwest;strokeColor=inherit;" vertex="1" parent="DMNaxNaqKt3KZPqngeq9-49">
          <mxGeometry y="76" width="160" height="8" as="geometry" />
        </mxCell>
        <mxCell id="DMNaxNaqKt3KZPqngeq9-52" value="login():&lt;div&gt;logout():&lt;/div&gt;" style="text;strokeColor=none;fillColor=none;align=left;verticalAlign=top;spacingLeft=4;spacingRight=4;overflow=hidden;rotatable=0;points=[[0,0.5],[1,0.5]];portConstraint=eastwest;whiteSpace=wrap;html=1;" vertex="1" parent="DMNaxNaqKt3KZPqngeq9-49">
          <mxGeometry y="84" width="160" height="40" as="geometry" />
        </mxCell>
        <mxCell id="DMNaxNaqKt3KZPqngeq9-53" value="Booking Ticket" style="swimlane;fontStyle=1;align=center;verticalAlign=top;childLayout=stackLayout;horizontal=1;startSize=26;horizontalStack=0;resizeParent=1;resizeParentMax=0;resizeLast=0;collapsible=1;marginBottom=0;whiteSpace=wrap;html=1;" vertex="1" parent="1">
          <mxGeometry x="480" y="120" width="160" height="150" as="geometry" />
        </mxCell>
        <mxCell id="DMNaxNaqKt3KZPqngeq9-54" value="booking:id&lt;div&gt;passenger:passenger&lt;/div&gt;&lt;div&gt;train:Train&lt;/div&gt;&lt;div&gt;journeyDate:Date&lt;/div&gt;" style="text;strokeColor=none;fillColor=none;align=left;verticalAlign=top;spacingLeft=4;spacingRight=4;overflow=hidden;rotatable=0;points=[[0,0.5],[1,0.5]];portConstraint=eastwest;whiteSpace=wrap;html=1;" vertex="1" parent="DMNaxNaqKt3KZPqngeq9-53">
          <mxGeometry y="26" width="160" height="74" as="geometry" />
        </mxCell>
        <mxCell id="DMNaxNaqKt3KZPqngeq9-55" value="" style="line;strokeWidth=1;fillColor=none;align=left;verticalAlign=middle;spacingTop=-1;spacingLeft=3;spacingRight=3;rotatable=0;labelPosition=right;points=[];portConstraint=eastwest;strokeColor=inherit;" vertex="1" parent="DMNaxNaqKt3KZPqngeq9-53">
          <mxGeometry y="100" width="160" height="8" as="geometry" />
        </mxCell>
        <mxCell id="DMNaxNaqKt3KZPqngeq9-56" value="void createBooking():&lt;div&gt;updateBookingStatus():&lt;/div&gt;" style="text;strokeColor=none;fillColor=none;align=left;verticalAlign=top;spacingLeft=4;spacingRight=4;overflow=hidden;rotatable=0;points=[[0,0.5],[1,0.5]];portConstraint=eastwest;whiteSpace=wrap;html=1;" vertex="1" parent="DMNaxNaqKt3KZPqngeq9-53">
          <mxGeometry y="108" width="160" height="42" as="geometry" />
        </mxCell>
        <mxCell id="DMNaxNaqKt3KZPqngeq9-61" value="&amp;lt;&amp;lt;abstract&amp;gt;&amp;gt; Payment" style="swimlane;fontStyle=1;align=center;verticalAlign=top;childLayout=stackLayout;horizontal=1;startSize=26;horizontalStack=0;resizeParent=1;resizeParentMax=0;resizeLast=0;collapsible=1;marginBottom=0;whiteSpace=wrap;html=1;" vertex="1" parent="1">
          <mxGeometry x="410" y="-310" width="210" height="210" as="geometry" />
        </mxCell>
        <mxCell id="DMNaxNaqKt3KZPqngeq9-62" value="amount:double&lt;div&gt;status: paymentStatus&lt;/div&gt;&lt;div&gt;timestamp:date/time&lt;/div&gt;&lt;div&gt;transaction:string&lt;/div&gt;" style="text;strokeColor=none;fillColor=none;align=left;verticalAlign=top;spacingLeft=4;spacingRight=4;overflow=hidden;rotatable=0;points=[[0,0.5],[1,0.5]];portConstraint=eastwest;whiteSpace=wrap;html=1;" vertex="1" parent="DMNaxNaqKt3KZPqngeq9-61">
          <mxGeometry y="26" width="210" height="74" as="geometry" />
        </mxCell>
        <mxCell id="DMNaxNaqKt3KZPqngeq9-63" value="" style="line;strokeWidth=1;fillColor=none;align=left;verticalAlign=middle;spacingTop=-1;spacingLeft=3;spacingRight=3;rotatable=0;labelPosition=right;points=[];portConstraint=eastwest;strokeColor=inherit;" vertex="1" parent="DMNaxNaqKt3KZPqngeq9-61">
          <mxGeometry y="100" width="210" height="28" as="geometry" />
        </mxCell>
        <mxCell id="DMNaxNaqKt3KZPqngeq9-64" value="void processPayment():&lt;div&gt;void generateReceipt():&lt;/div&gt;&lt;div&gt;void refundPayment():&lt;/div&gt;" style="text;strokeColor=none;fillColor=none;align=left;verticalAlign=top;spacingLeft=4;spacingRight=4;overflow=hidden;rotatable=0;points=[[0,0.5],[1,0.5]];portConstraint=eastwest;whiteSpace=wrap;html=1;" vertex="1" parent="DMNaxNaqKt3KZPqngeq9-61">
          <mxGeometry y="128" width="210" height="82" as="geometry" />
        </mxCell>
        <mxCell id="DMNaxNaqKt3KZPqngeq9-67" value="Cash" style="swimlane;fontStyle=1;align=center;verticalAlign=top;childLayout=stackLayout;horizontal=1;startSize=26;horizontalStack=0;resizeParent=1;resizeParentMax=0;resizeLast=0;collapsible=1;marginBottom=0;whiteSpace=wrap;html=1;" vertex="1" parent="1">
          <mxGeometry x="280" width="160" height="86" as="geometry" />
        </mxCell>
        <mxCell id="DMNaxNaqKt3KZPqngeq9-68" value="+ field: type" style="text;strokeColor=none;fillColor=none;align=left;verticalAlign=top;spacingLeft=4;spacingRight=4;overflow=hidden;rotatable=0;points=[[0,0.5],[1,0.5]];portConstraint=eastwest;whiteSpace=wrap;html=1;" vertex="1" parent="DMNaxNaqKt3KZPqngeq9-67">
          <mxGeometry y="26" width="160" height="26" as="geometry" />
        </mxCell>
        <mxCell id="DMNaxNaqKt3KZPqngeq9-69" value="" style="line;strokeWidth=1;fillColor=none;align=left;verticalAlign=middle;spacingTop=-1;spacingLeft=3;spacingRight=3;rotatable=0;labelPosition=right;points=[];portConstraint=eastwest;strokeColor=inherit;" vertex="1" parent="DMNaxNaqKt3KZPqngeq9-67">
          <mxGeometry y="52" width="160" height="8" as="geometry" />
        </mxCell>
        <mxCell id="DMNaxNaqKt3KZPqngeq9-70" value="+ method(type): type" style="text;strokeColor=none;fillColor=none;align=left;verticalAlign=top;spacingLeft=4;spacingRight=4;overflow=hidden;rotatable=0;points=[[0,0.5],[1,0.5]];portConstraint=eastwest;whiteSpace=wrap;html=1;" vertex="1" parent="DMNaxNaqKt3KZPqngeq9-67">
          <mxGeometry y="60" width="160" height="26" as="geometry" />
        </mxCell>
        <mxCell id="DMNaxNaqKt3KZPqngeq9-71" value="TrainTicket" style="swimlane;fontStyle=1;align=center;verticalAlign=top;childLayout=stackLayout;horizontal=1;startSize=26;horizontalStack=0;resizeParent=1;resizeParentMax=0;resizeLast=0;collapsible=1;marginBottom=0;whiteSpace=wrap;html=1;" vertex="1" parent="1">
          <mxGeometry x="890" y="-150" width="160" height="190" as="geometry" />
        </mxCell>
        <mxCell id="DMNaxNaqKt3KZPqngeq9-72" value="ticketNo:int&lt;div&gt;amount:double&lt;/div&gt;&lt;div&gt;paymentDetails:string&lt;/div&gt;&lt;div&gt;trainDetail:string&lt;/div&gt;&lt;div&gt;ticketStatus:TicketStatus&lt;/div&gt;" style="text;strokeColor=none;fillColor=none;align=left;verticalAlign=top;spacingLeft=4;spacingRight=4;overflow=hidden;rotatable=0;points=[[0,0.5],[1,0.5]];portConstraint=eastwest;whiteSpace=wrap;html=1;" vertex="1" parent="DMNaxNaqKt3KZPqngeq9-71">
          <mxGeometry y="26" width="160" height="94" as="geometry" />
        </mxCell>
        <mxCell id="DMNaxNaqKt3KZPqngeq9-73" value="" style="line;strokeWidth=1;fillColor=none;align=left;verticalAlign=middle;spacingTop=-1;spacingLeft=3;spacingRight=3;rotatable=0;labelPosition=right;points=[];portConstraint=eastwest;strokeColor=inherit;" vertex="1" parent="DMNaxNaqKt3KZPqngeq9-71">
          <mxGeometry y="120" width="160" height="8" as="geometry" />
        </mxCell>
        <mxCell id="DMNaxNaqKt3KZPqngeq9-74" value="void generateTicket&lt;span style=&quot;background-color: transparent; color: light-dark(rgb(0, 0, 0), rgb(255, 255, 255));&quot;&gt;():&lt;/span&gt;&lt;div&gt;&lt;span style=&quot;background-color: transparent; color: light-dark(rgb(0, 0, 0), rgb(255, 255, 255));&quot;&gt;void validateTicket():&lt;/span&gt;&lt;/div&gt;&lt;div&gt;&lt;span style=&quot;background-color: transparent; color: light-dark(rgb(0, 0, 0), rgb(255, 255, 255));&quot;&gt;void updateStatus():&lt;/span&gt;&lt;/div&gt;" style="text;strokeColor=none;fillColor=none;align=left;verticalAlign=top;spacingLeft=4;spacingRight=4;overflow=hidden;rotatable=0;points=[[0,0.5],[1,0.5]];portConstraint=eastwest;whiteSpace=wrap;html=1;" vertex="1" parent="DMNaxNaqKt3KZPqngeq9-71">
          <mxGeometry y="128" width="160" height="62" as="geometry" />
        </mxCell>
        <mxCell id="DMNaxNaqKt3KZPqngeq9-75" value="" style="endArrow=none;html=1;rounded=0;exitX=0.372;exitY=-0.012;exitDx=0;exitDy=0;exitPerimeter=0;entryX=0.5;entryY=0;entryDx=0;entryDy=0;" edge="1" parent="1" source="DMNaxNaqKt3KZPqngeq9-67" target="DMNaxNaqKt3KZPqngeq9-17">
          <mxGeometry width="50" height="50" relative="1" as="geometry">
            <mxPoint x="443" as="sourcePoint" />
            <mxPoint x="720" y="-30" as="targetPoint" />
            <Array as="points">
              <mxPoint x="340" y="-30" />
              <mxPoint x="620" y="-30" />
            </Array>
          </mxGeometry>
        </mxCell>
        <mxCell id="DMNaxNaqKt3KZPqngeq9-76" value="" style="endArrow=block;dashed=1;endFill=0;endSize=12;html=1;rounded=0;entryX=0.472;entryY=1.093;entryDx=0;entryDy=0;entryPerimeter=0;" edge="1" parent="1">
          <mxGeometry width="160" relative="1" as="geometry">
            <mxPoint x="500" y="-30" as="sourcePoint" />
            <mxPoint x="499.9999999999999" y="-96.00199999999988" as="targetPoint" />
          </mxGeometry>
        </mxCell>
        <mxCell id="DMNaxNaqKt3KZPqngeq9-90" value="Extends" style="edgeLabel;html=1;align=center;verticalAlign=middle;resizable=0;points=[];" vertex="1" connectable="0" parent="DMNaxNaqKt3KZPqngeq9-76">
          <mxGeometry x="0.0043" relative="1" as="geometry">
            <mxPoint as="offset" />
          </mxGeometry>
        </mxCell>
        <mxCell id="DMNaxNaqKt3KZPqngeq9-78" value="" style="endArrow=diamondThin;endFill=1;endSize=24;html=1;rounded=0;exitX=0.473;exitY=-0.004;exitDx=0;exitDy=0;exitPerimeter=0;entryX=0.478;entryY=1.014;entryDx=0;entryDy=0;entryPerimeter=0;" edge="1" parent="1" source="DMNaxNaqKt3KZPqngeq9-29" target="DMNaxNaqKt3KZPqngeq9-24">
          <mxGeometry width="160" relative="1" as="geometry">
            <mxPoint x="800" y="370" as="sourcePoint" />
            <mxPoint x="960" y="370" as="targetPoint" />
          </mxGeometry>
        </mxCell>
        <mxCell id="DMNaxNaqKt3KZPqngeq9-79" value="" style="endArrow=diamondThin;endFill=0;endSize=24;html=1;rounded=0;entryX=0.467;entryY=1.072;entryDx=0;entryDy=0;entryPerimeter=0;exitX=0.465;exitY=-0.013;exitDx=0;exitDy=0;exitPerimeter=0;" edge="1" parent="1" source="DMNaxNaqKt3KZPqngeq9-33" target="DMNaxNaqKt3KZPqngeq9-32">
          <mxGeometry width="160" relative="1" as="geometry">
            <mxPoint x="960" y="570" as="sourcePoint" />
            <mxPoint x="960" y="530" as="targetPoint" />
          </mxGeometry>
        </mxCell>
        <mxCell id="DMNaxNaqKt3KZPqngeq9-80" value="" style="endArrow=diamondThin;endFill=1;endSize=24;html=1;rounded=0;exitX=0.465;exitY=-0.036;exitDx=0;exitDy=0;exitPerimeter=0;entryX=0.458;entryY=0.945;entryDx=0;entryDy=0;entryPerimeter=0;" edge="1" parent="1" source="DMNaxNaqKt3KZPqngeq9-37" target="DMNaxNaqKt3KZPqngeq9-36">
          <mxGeometry width="160" relative="1" as="geometry">
            <mxPoint x="1000" y="750" as="sourcePoint" />
            <mxPoint x="1000" y="640" as="targetPoint" />
          </mxGeometry>
        </mxCell>
        <mxCell id="DMNaxNaqKt3KZPqngeq9-81" value="&amp;lt;&amp;lt;enum&amp;gt;&amp;gt;ComplaintStatus" style="swimlane;fontStyle=0;childLayout=stackLayout;horizontal=1;startSize=26;fillColor=none;horizontalStack=0;resizeParent=1;resizeParentMax=0;resizeLast=0;collapsible=1;marginBottom=0;whiteSpace=wrap;html=1;" vertex="1" parent="1">
          <mxGeometry x="1202.5" y="403" width="155" height="104" as="geometry" />
        </mxCell>
        <mxCell id="DMNaxNaqKt3KZPqngeq9-82" value="Solved" style="text;strokeColor=none;fillColor=none;align=left;verticalAlign=top;spacingLeft=4;spacingRight=4;overflow=hidden;rotatable=0;points=[[0,0.5],[1,0.5]];portConstraint=eastwest;whiteSpace=wrap;html=1;" vertex="1" parent="DMNaxNaqKt3KZPqngeq9-81">
          <mxGeometry y="26" width="155" height="26" as="geometry" />
        </mxCell>
        <mxCell id="DMNaxNaqKt3KZPqngeq9-83" value="Pending" style="text;strokeColor=none;fillColor=none;align=left;verticalAlign=top;spacingLeft=4;spacingRight=4;overflow=hidden;rotatable=0;points=[[0,0.5],[1,0.5]];portConstraint=eastwest;whiteSpace=wrap;html=1;" vertex="1" parent="DMNaxNaqKt3KZPqngeq9-81">
          <mxGeometry y="52" width="155" height="26" as="geometry" />
        </mxCell>
        <mxCell id="DMNaxNaqKt3KZPqngeq9-84" value="In-process" style="text;strokeColor=none;fillColor=none;align=left;verticalAlign=top;spacingLeft=4;spacingRight=4;overflow=hidden;rotatable=0;points=[[0,0.5],[1,0.5]];portConstraint=eastwest;whiteSpace=wrap;html=1;" vertex="1" parent="DMNaxNaqKt3KZPqngeq9-81">
          <mxGeometry y="78" width="155" height="26" as="geometry" />
        </mxCell>
        <mxCell id="DMNaxNaqKt3KZPqngeq9-86" value="" style="endArrow=none;html=1;rounded=0;exitX=1.005;exitY=0.76;exitDx=0;exitDy=0;exitPerimeter=0;entryX=0.444;entryY=-0.011;entryDx=0;entryDy=0;entryPerimeter=0;" edge="1" parent="1" source="DMNaxNaqKt3KZPqngeq9-62" target="DMNaxNaqKt3KZPqngeq9-71">
          <mxGeometry width="50" height="50" relative="1" as="geometry">
            <mxPoint x="810" y="-210" as="sourcePoint" />
            <mxPoint x="860" y="-260" as="targetPoint" />
            <Array as="points">
              <mxPoint x="960" y="-228" />
            </Array>
          </mxGeometry>
        </mxCell>
        <mxCell id="DMNaxNaqKt3KZPqngeq9-87" value="" style="endArrow=diamondThin;endFill=1;endSize=24;html=1;rounded=0;entryX=0.5;entryY=0;entryDx=0;entryDy=0;exitX=0.98;exitY=1.024;exitDx=0;exitDy=0;exitPerimeter=0;" edge="1" parent="1" source="DMNaxNaqKt3KZPqngeq9-74" target="DMNaxNaqKt3KZPqngeq9-21">
          <mxGeometry width="160" relative="1" as="geometry">
            <mxPoint x="1005" y="10" as="sourcePoint" />
            <mxPoint x="1030" y="200" as="targetPoint" />
            <Array as="points">
              <mxPoint x="1044" y="40" />
              <mxPoint x="1005" y="40" />
            </Array>
          </mxGeometry>
        </mxCell>
        <mxCell id="DMNaxNaqKt3KZPqngeq9-89" value="" style="endArrow=classic;html=1;rounded=0;entryX=1.004;entryY=-0.045;entryDx=0;entryDy=0;entryPerimeter=0;" edge="1" parent="1" target="DMNaxNaqKt3KZPqngeq9-22">
          <mxGeometry width="50" height="50" relative="1" as="geometry">
            <mxPoint x="1280" y="190" as="sourcePoint" />
            <mxPoint x="1240" y="120" as="targetPoint" />
            <Array as="points">
              <mxPoint x="1280" y="151" />
            </Array>
          </mxGeometry>
        </mxCell>
        <mxCell id="DMNaxNaqKt3KZPqngeq9-91" value="Staff" style="swimlane;fontStyle=1;align=center;verticalAlign=top;childLayout=stackLayout;horizontal=1;startSize=26;horizontalStack=0;resizeParent=1;resizeParentMax=0;resizeLast=0;collapsible=1;marginBottom=0;whiteSpace=wrap;html=1;" vertex="1" parent="1">
          <mxGeometry x="650" y="660" width="160" height="86" as="geometry" />
        </mxCell>
        <mxCell id="DMNaxNaqKt3KZPqngeq9-92" value="+ field: type" style="text;strokeColor=none;fillColor=none;align=left;verticalAlign=top;spacingLeft=4;spacingRight=4;overflow=hidden;rotatable=0;points=[[0,0.5],[1,0.5]];portConstraint=eastwest;whiteSpace=wrap;html=1;" vertex="1" parent="DMNaxNaqKt3KZPqngeq9-91">
          <mxGeometry y="26" width="160" height="26" as="geometry" />
        </mxCell>
        <mxCell id="DMNaxNaqKt3KZPqngeq9-93" value="" style="line;strokeWidth=1;fillColor=none;align=left;verticalAlign=middle;spacingTop=-1;spacingLeft=3;spacingRight=3;rotatable=0;labelPosition=right;points=[];portConstraint=eastwest;strokeColor=inherit;" vertex="1" parent="DMNaxNaqKt3KZPqngeq9-91">
          <mxGeometry y="52" width="160" height="8" as="geometry" />
        </mxCell>
        <mxCell id="DMNaxNaqKt3KZPqngeq9-94" value="+ method(type): type" style="text;strokeColor=none;fillColor=none;align=left;verticalAlign=top;spacingLeft=4;spacingRight=4;overflow=hidden;rotatable=0;points=[[0,0.5],[1,0.5]];portConstraint=eastwest;whiteSpace=wrap;html=1;" vertex="1" parent="DMNaxNaqKt3KZPqngeq9-91">
          <mxGeometry y="60" width="160" height="26" as="geometry" />
        </mxCell>
        <mxCell id="DMNaxNaqKt3KZPqngeq9-95" value="" style="endArrow=none;html=1;rounded=0;" edge="1" parent="1">
          <mxGeometry width="50" height="50" relative="1" as="geometry">
            <mxPoint x="510" y="660" as="sourcePoint" />
            <mxPoint x="730" y="660" as="targetPoint" />
            <Array as="points">
              <mxPoint x="510" y="630" />
              <mxPoint x="730" y="630" />
            </Array>
          </mxGeometry>
        </mxCell>
        <mxCell id="DMNaxNaqKt3KZPqngeq9-96" value="" style="endArrow=block;dashed=1;endFill=0;endSize=12;html=1;rounded=0;" edge="1" parent="1">
          <mxGeometry width="160" relative="1" as="geometry">
            <mxPoint x="620" y="627" as="sourcePoint" />
            <mxPoint x="620" y="574" as="targetPoint" />
          </mxGeometry>
        </mxCell>
        <mxCell id="DMNaxNaqKt3KZPqngeq9-108" value="Extends" style="edgeLabel;html=1;align=center;verticalAlign=middle;resizable=0;points=[];" vertex="1" connectable="0" parent="DMNaxNaqKt3KZPqngeq9-96">
          <mxGeometry x="-0.1824" y="-4" relative="1" as="geometry">
            <mxPoint as="offset" />
          </mxGeometry>
        </mxCell>
        <mxCell id="DMNaxNaqKt3KZPqngeq9-97" value="" style="endArrow=diamondThin;endFill=1;endSize=24;html=1;rounded=0;exitX=0.859;exitY=-0.018;exitDx=0;exitDy=0;exitPerimeter=0;entryX=0;entryY=0.5;entryDx=0;entryDy=0;" edge="1" parent="1" source="DMNaxNaqKt3KZPqngeq9-49" target="DMNaxNaqKt3KZPqngeq9-24">
          <mxGeometry width="160" relative="1" as="geometry">
            <mxPoint x="730" y="250" as="sourcePoint" />
            <mxPoint x="890" y="250" as="targetPoint" />
            <Array as="points">
              <mxPoint x="677" y="360" />
              <mxPoint x="800" y="360" />
              <mxPoint x="800" y="240" />
            </Array>
          </mxGeometry>
        </mxCell>
        <mxCell id="DMNaxNaqKt3KZPqngeq9-99" value="" style="endArrow=diamondThin;endFill=1;endSize=24;html=1;rounded=0;exitX=1.011;exitY=0.189;exitDx=0;exitDy=0;entryX=0;entryY=0.13;entryDx=0;entryDy=0;entryPerimeter=0;exitPerimeter=0;" edge="1" parent="1" source="DMNaxNaqKt3KZPqngeq9-54" target="DMNaxNaqKt3KZPqngeq9-22">
          <mxGeometry width="160" relative="1" as="geometry">
            <mxPoint x="720" y="160" as="sourcePoint" />
            <mxPoint x="880" y="160" as="targetPoint" />
          </mxGeometry>
        </mxCell>
        <mxCell id="DMNaxNaqKt3KZPqngeq9-113" style="edgeStyle=orthogonalEdgeStyle;rounded=0;orthogonalLoop=1;jettySize=auto;html=1;exitX=0.5;exitY=0;exitDx=0;exitDy=0;entryX=1;entryY=0.5;entryDx=0;entryDy=0;" edge="1" parent="1" source="DMNaxNaqKt3KZPqngeq9-100" target="DMNaxNaqKt3KZPqngeq9-72">
          <mxGeometry relative="1" as="geometry" />
        </mxCell>
        <mxCell id="DMNaxNaqKt3KZPqngeq9-100" value="TicketStatus" style="swimlane;fontStyle=1;align=center;verticalAlign=top;childLayout=stackLayout;horizontal=1;startSize=26;horizontalStack=0;resizeParent=1;resizeParentMax=0;resizeLast=0;collapsible=1;marginBottom=0;whiteSpace=wrap;html=1;" vertex="1" parent="1">
          <mxGeometry x="1120" y="-37" width="160" height="120" as="geometry" />
        </mxCell>
        <mxCell id="DMNaxNaqKt3KZPqngeq9-101" value="ticketNo:int&lt;div&gt;trainNo:int&lt;/div&gt;&lt;div&gt;trainDate:dateTime&lt;/div&gt;" style="text;strokeColor=none;fillColor=none;align=left;verticalAlign=top;spacingLeft=4;spacingRight=4;overflow=hidden;rotatable=0;points=[[0,0.5],[1,0.5]];portConstraint=eastwest;whiteSpace=wrap;html=1;" vertex="1" parent="DMNaxNaqKt3KZPqngeq9-100">
          <mxGeometry y="26" width="160" height="60" as="geometry" />
        </mxCell>
        <mxCell id="DMNaxNaqKt3KZPqngeq9-102" value="" style="line;strokeWidth=1;fillColor=none;align=left;verticalAlign=middle;spacingTop=-1;spacingLeft=3;spacingRight=3;rotatable=0;labelPosition=right;points=[];portConstraint=eastwest;strokeColor=inherit;" vertex="1" parent="DMNaxNaqKt3KZPqngeq9-100">
          <mxGeometry y="86" width="160" height="8" as="geometry" />
        </mxCell>
        <mxCell id="DMNaxNaqKt3KZPqngeq9-103" value="getTicketStatus():" style="text;strokeColor=none;fillColor=none;align=left;verticalAlign=top;spacingLeft=4;spacingRight=4;overflow=hidden;rotatable=0;points=[[0,0.5],[1,0.5]];portConstraint=eastwest;whiteSpace=wrap;html=1;" vertex="1" parent="DMNaxNaqKt3KZPqngeq9-100">
          <mxGeometry y="94" width="160" height="26" as="geometry" />
        </mxCell>
        <mxCell id="DMNaxNaqKt3KZPqngeq9-104" style="edgeStyle=orthogonalEdgeStyle;rounded=0;orthogonalLoop=1;jettySize=auto;html=1;exitX=0;exitY=0.5;exitDx=0;exitDy=0;entryX=0.835;entryY=-0.001;entryDx=0;entryDy=0;entryPerimeter=0;" edge="1" parent="1" source="DMNaxNaqKt3KZPqngeq9-101" target="DMNaxNaqKt3KZPqngeq9-21">
          <mxGeometry relative="1" as="geometry" />
        </mxCell>
        <mxCell id="DMNaxNaqKt3KZPqngeq9-106" style="edgeStyle=orthogonalEdgeStyle;rounded=0;orthogonalLoop=1;jettySize=auto;html=1;exitX=0.5;exitY=0;exitDx=0;exitDy=0;entryX=1.015;entryY=1.046;entryDx=0;entryDy=0;entryPerimeter=0;" edge="1" parent="1" source="DMNaxNaqKt3KZPqngeq9-5" target="DMNaxNaqKt3KZPqngeq9-62">
          <mxGeometry relative="1" as="geometry" />
        </mxCell>
        <mxCell id="DMNaxNaqKt3KZPqngeq9-110" value="" style="endArrow=classic;html=1;rounded=0;exitX=0.634;exitY=1.095;exitDx=0;exitDy=0;exitPerimeter=0;" edge="1" parent="1" source="DMNaxNaqKt3KZPqngeq9-12">
          <mxGeometry width="50" height="50" relative="1" as="geometry">
            <mxPoint x="380" y="710" as="sourcePoint" />
            <mxPoint x="430" y="660" as="targetPoint" />
            <Array as="points">
              <mxPoint x="383" y="660" />
            </Array>
          </mxGeometry>
        </mxCell>
        <mxCell id="DMNaxNaqKt3KZPqngeq9-111" value="" style="endArrow=classic;html=1;rounded=0;exitX=0.535;exitY=-0.003;exitDx=0;exitDy=0;exitPerimeter=0;" edge="1" parent="1" source="DMNaxNaqKt3KZPqngeq9-81">
          <mxGeometry width="50" height="50" relative="1" as="geometry">
            <mxPoint x="1230" y="340" as="sourcePoint" />
            <mxPoint x="1285" y="370" as="targetPoint" />
          </mxGeometry>
        </mxCell>
        <mxCell id="DMNaxNaqKt3KZPqngeq9-115" value="" style="endArrow=block;dashed=1;endFill=0;endSize=12;html=1;rounded=0;" edge="1" parent="1">
          <mxGeometry width="160" relative="1" as="geometry">
            <mxPoint x="559.44" y="310" as="sourcePoint" />
            <mxPoint x="559.44" y="270" as="targetPoint" />
          </mxGeometry>
        </mxCell>
        <mxCell id="DMNaxNaqKt3KZPqngeq9-116" value="implements" style="edgeLabel;html=1;align=center;verticalAlign=middle;resizable=0;points=[];" vertex="1" connectable="0" parent="DMNaxNaqKt3KZPqngeq9-115">
          <mxGeometry x="-0.3056" y="-1" relative="1" as="geometry">
            <mxPoint y="-1" as="offset" />
          </mxGeometry>
        </mxCell>
      </root>
    </mxGraphModel>
  </diagram>
</mxfile>
